<?xml version="1.0" encoding="UTF-8"?>
<svg width="16px" height="16px" viewBox="0 0 16 16" version="1.1" xmlns="http://www.w3.org/2000/svg" xmlns:xlink="http://www.w3.org/1999/xlink">
    <!-- Generator: Sketch 58 (84663) - https://sketch.com -->
    <title>Outline</title>
    <desc>Created with Sketch.</desc>
    <g id="Outline" stroke="none" stroke-width="1" fill="none" fill-rule="evenodd">
        <g id="Group-141" transform="translate(0.800000, 0.800000)" stroke="#FFFFFF" stroke-width="1.3718">
            <path d="M12.103,8.93316667 L12.103,6.33966667 C12.103,4.241237 10.8120133,2.33357367 8.87380433,1.54169167 C8.65767933,0.638577333 7.85945767,0 6.916,0 C5.98695067,0 5.173168,0.651833 4.95646667,1.54169167 C3.01941033,2.33357367 1.729,4.24066067 1.729,6.33966667 L1.729,8.93316667 C1.729,9.72793033 1.082354,10.374 0.288166667,10.374 C0.129098667,10.374 0,10.5030987 0,10.6621667 C0,10.8212347 0.129098667,10.9503333 0.288166667,10.9503333 L12.9986736,10.9503333 L13.5438333,10.9503333 C13.7029013,10.9503333 13.832,10.8212347 13.832,10.6621667 C13.832,10.5030987 13.7029013,10.374 13.5438333,10.374 C12.749646,10.374 12.103,9.72793033 12.103,8.93316667 Z" id="Fill-175"></path>
            <path d="M5.187,11.5266667 C5.027932,11.5266667 4.89883333,11.6557653 4.89883333,11.8148333 C4.89883333,12.9271567 5.80367667,13.832 6.916,13.832 C8.02832333,13.832 8.93316667,12.9271567 8.93316667,11.8148333 C8.93316667,11.6557653 8.804068,11.5266667 8.645,11.5266667 L5.187,11.5266667 Z" id="Fill-176"></path>
        </g>
    </g>
</svg>