<svg xmlns="http://www.w3.org/2000/svg" width="118.5" height="20.039" viewBox="0 0 118.5 20.039"><path d="M45.752 14.955c0 .748-.058 1.132 1.074.882v.422c-.134.06-.365.154-.576.192-.998.173-1.821.021-1.978-1.112l-.172.174c-.806.806-1.688 1.208-2.839 1.208-1.363 0-2.553-.922-2.553-2.342 0-2.188 1.746-2.477 3.549-2.764 1.517-.249 2.035-.365 2.035-1.286 0-1.42-.807-2.245-2.246-2.245-1.399 0-2.147.902-2.283 1.324h-.211V8.333c.922-.634 1.957-1.056 3.09-1.056 2.014 0 3.107 1.056 3.107 3.223v4.453m-1.534-3.167l-.672.135c-1.304.249-3.262.441-3.262 2.188 0 1.209.71 1.804 1.881 1.804.518 0 1.17-.364 1.533-.729.135-.136.52-.461.52-.597v-2.801m5.44-6.888v2.494h2.034c-.058.27-.058.537 0 .729h-2.034v4.817c0 1.171-.173 3.107 1.42 3.107.288 0 .576-.075.864-.134v.46c-.519.192-1.056.346-1.612.346-1.457 0-2.303-.672-2.207-3.013V8.12h-1.19a1.549 1.549 0 0 0 0-.729h1.189v-1.9l1.536-.593m10.554 10.688c-.94.671-2.13 1.133-3.301 1.133-2.647 0-4.528-1.746-4.528-4.722 0-2.667 1.535-4.72 4.395-4.72 2.13 0 4.089 1.497 3.896 4.701-1.306-.039-2.61-.059-3.896-.059H54.07c-.173 2.148.997 3.991 3.319 3.991 1.304 0 2.321-.825 2.84-1.324l-.02 1m-1.037-4.375c-.039-1.669-.5-3.339-2.398-3.339-1.804 0-2.59 1.728-2.705 3.339h5.103m2.984-3.817c.25.019.498.057.766.057.25 0 .48-.039.77-.058v1.919l.096-.23c.633-.998 1.459-1.804 2.418-1.804.27 0 .422.019.594.096l-.27 1.612c-.287-.077-.576-.308-.902-.308-.422 0-.938.153-1.229.479-.672.767-.709 1.4-.709 2.437v4.971c-.289-.021-.52-.059-.77-.059-.268 0-.518.038-.766.059l.002-9.171m12.926 8.192c-.939.671-2.129 1.133-3.301 1.133-2.648 0-4.527-1.746-4.527-4.722 0-2.667 1.535-4.72 4.395-4.72 2.129 0 4.088 1.497 3.895 4.701a130.58 130.58 0 0 0-3.895-.059h-2.705c-.174 2.148.996 3.991 3.318 3.991 1.305 0 2.32-.825 2.84-1.324l-.02 1m-1.037-4.375c-.039-1.669-.498-3.339-2.396-3.339-1.805 0-2.592 1.728-2.707 3.339h5.103m3.404-3.817c.25.019.5.057.768.057.248 0 .48-.039.768-.058v1.919l.096-.23c.635-.998 1.459-1.804 2.418-1.804.27 0 .422.019.594.096l-.266 1.612c-.289-.077-.576-.308-.904-.308-.42 0-.938.153-1.229.479-.67.767-.709 1.4-.709 2.437v4.971c-.287-.021-.518-.059-.768-.059-.27 0-.518.038-.766.059l-.002-9.171" fill="#fff"/><path d="M82.57 14.417c.613 0 1.131.537 1.131 1.151a1.15 1.15 0 0 1-1.131 1.15c-.635 0-1.17-.519-1.17-1.15-.002-.633.555-1.151 1.17-1.151m10.401-5.086h-.152c-.154-.211-.309-.461-.52-.634-.439-.498-1.248-.768-1.898-.768-2.229 0-3.301 1.919-3.301 3.934 0 2.456 1.398 4.202 3.492 4.202 1.111 0 1.842-.519 2.648-1.247l.115.058-.098.883a4.928 4.928 0 0 1-2.938.96c-3.203 0-4.912-2.071-4.912-4.76 0-2.974 2.111-4.683 4.971-4.683 1.096 0 2.092.211 3.031.787l-.438 1.268m6.109-2.053c2.629 0 4.451 1.823 4.451 4.683 0 2.438-1.629 4.76-4.795 4.76-2.592 0-4.703-1.899-4.529-4.815-.002-2.766 2.111-4.627 4.873-4.628m-3.185 4.913c0 1.898.805 3.934 2.994 3.934 2.244 0 2.955-2.764 2.955-4.261 0-1.728-.652-3.991-2.781-3.991-2.44 0-3.168 2.284-3.168 4.318m9.326-4.797c.25.019.5.057.768.057.25 0 .48-.039.768-.058v1.65c.635-1.094 1.496-1.765 2.84-1.765 1.248 0 2.398.672 2.803 1.899.729-1.229 1.707-1.899 3.012-1.899 2.342 0 3.09 1.362 3.09 3.742v5.545c-.289-.02-.52-.059-.77-.059-.268 0-.518.039-.768.059v-5.104c0-1.708-.248-3.187-2.129-3.187-1.938 0-2.207 1.728-2.207 3.108v5.182c-.289-.021-.518-.059-.768-.059-.27 0-.52.038-.768.059v-5.623c0-1.804-.615-2.668-2.035-2.668-1.977 0-2.303 1.306-2.303 2.706v5.583c-.287-.02-.518-.059-.768-.059-.268 0-.518.039-.768.059l.003-9.168" fill="#FF8D27"/><path fill="#fff" d="M37.482 15.866c-.485.388-2.099 1.106-4.04 1.106-4.098 0-7.089-2.544-7.089-6.952 0-4.409 2.989-6.953 7.282-6.953 1.671 0 3.166.408 4.216.893-.194.35-.331 1.107-.408 1.516l-.116.039c-.544-.603-1.865-1.729-3.689-1.729-3.049 0-5.381 1.923-5.381 6.234 0 4.313 2.332 6.233 5.381 6.233 1.845 0 3.205-1.048 3.941-1.611l.078.078-.175 1.146"/><path fill="#FF8D27" d="M0 10.021h10.019v10.018H0V10.021z"/><path fill="#333" d="M10.016 10.021h10.018v10.018H10.016V10.021z"/><path fill="#924199" d="M0 0h10.018v10.02H0V0z"/><path fill="#FFCF1A" d="M10.017 0h10.018v10.02H10.017V0z"/><path d="M14.648.978h-.081c.01.228.068 1.641.02 1.803-.028.1-.063.141-.102.147v.002h-.014v-.002c-.038-.007-.072-.049-.102-.147-.05-.162-.063-1.575-.063-1.803h-.118c.021 1.642-.021 1.646-.066 1.803-.031.1-.065.141-.104.147v.002h-.016v-.002c-.037-.007-.071-.049-.102-.147-.048-.162.01-1.575.02-1.803h-.092s-.348 2.124-.1 2.351c.1.091.212.144.333.169-.022.704-.146 4.618-.042 5.071.064.279.138.393.218.415v.004l.017-.001.018.001v-.004c.08-.022.152-.136.217-.415.104-.456-.02-4.403-.042-5.08a.711.711 0 0 0 .304-.16c.244-.227-.103-2.351-.103-2.351m.897.014v2.372c-.015.406-.157 4.721-.045 5.2.063.283.141.396.223.419v.004l.017-.001.017.001v-.004c.082-.022.158-.137.224-.419.11-.478-.03-4.741-.045-5.193a1.49 1.49 0 0 0 .356-.166c.388-.25-.228-2.057-.747-2.213" fill="#1E1B1C"/><g fill="#fff"><path d="M5.6 4.117a1.395 1.395 0 0 0-.591-2.663A1.4 1.4 0 0 0 3.61 2.852c0 .562.332 1.042.81 1.265l-.076.438-.666 3.92H6.34l-.666-3.92-.074-.438m10.19 14.799h-1.531s-.644-4.938-.183-5.466c.203-.23.433-.354.679-.406v-1.417h-.041v-.508h.621v.508h-.039v1.417c.246.054.475.177.679.406.459.527-.185 5.466-.185 5.466m-.157-4.12a.609.609 0 1 0-1.217.001.609.609 0 0 0 1.217-.001m-9.2-2.256a.977.977 0 0 0-.446.11c-.166-.431-.552-.733-1.003-.733-.454 0-.842.309-1.005.744a.983.983 0 0 0-.393-.082c-.521 0-.943.397-.943.888s.422.89.943.89a.962.962 0 0 0 .713-.313c.188.169.424.274.685.274.283 0 .539-.122.731-.317a.963.963 0 0 0 .717.317c.521 0 .943-.397.943-.888 0-.492-.421-.89-.942-.89M3.715 17.712h2.576v.644H3.715v-.644zm2.578-3.068a1.307 1.307 0 0 1-.584-.207 1.31 1.31 0 0 1-1.394.034 1.32 1.32 0 0 1-.599.213v2.731h2.576v-2.771"/></g></svg>