<svg xmlns="http://www.w3.org/2000/svg" viewBox="0 0 317 119.5"><g fill="#4c4c4c"><path d="M174.03 7.17h136.21v84.09H174.03zM69.09 14.444h76.983v90.46H69.09zM5.121 40.816h40.19v66.812H5.121z"/></g><path opacity=".11" d="M174.22 9.598h134.73v.88h.006v80.424h-.006v2.725h-1.647a1.49 1.49 0 0 1-1.272 2.264 1.488 1.488 0 0 1-1.268-2.264h-130.54V9.597m134.73-5.118h-139.08c-2.898 0-5.252 2.292-5.252 5.118v84.03c0 2.831 2.352 5.123 5.252 5.123h54.901v-.412h29.795v.412h54.39c2.898 0 5.251-2.292 5.251-5.123V9.597c0-2.825-2.352-5.118-5.252-5.118"/><path opacity=".11" d="M253.46 98.34h-29.03V113.367l29.03.025V98.34"/><path opacity=".11" d="M210.66 112.58c-2.187 0-2.082 1.151-2.082 1.151v2.362c0 1.11 1.762 1.154 2.044 1.154h.039s45.697-.022 53.868-.022c2.391 0 2.44-1.166 2.44-1.166v-2.284c0-1.07-1.508-1.151-1.957-1.151-.08 0-.128.003-.128.003s-5.315-.007-12.631-.013c-8.698-.008-20.229-.019-29.03-.025-6.172-.004-10.998-.009-12.566-.009M298.88 92.13c-.54 0-1.017.287-1.276.718a1.488 1.488 0 0 0-.219.775c0 .823.672 1.489 1.495 1.489a1.492 1.492 0 1 0 0-2.982"/><path fill="#8f9294" d="M309.52 2.052h-135.5a5.118 5.118 0 0 0-5.119 5.118V91.2a5.12 5.12 0 0 0 5.119 5.12h135.5a5.12 5.12 0 0 0 5.12-5.12V7.17a5.12 5.12 0 0 0-5.12-5.118m0 89.15h-135.5V7.172h135.5v84.03"/><path fill="#727273" d="M227.51 95.9h29.02v18.18h-29.02z"/><path fill="#8f9294" d="M212.87 112.07s-.103-1.148 2.084-1.148c5.684 0 54.23.046 54.23.046s2.08-.11 2.08 1.149v2.285s-.048 1.166-2.437 1.166c-8.171 0-53.87.019-53.87.019s-2.084.051-2.084-1.153c.002-1.09.002-2.364.002-2.364"/><circle fill="#de4a52" cx="306.59" cy="91.97" r="1.493"/><path opacity=".23" fill="#fff" d="M176.34 9.771v61.26l77.35-61.26z"/><path fill="#8f9294" d="M309.53 4.611h-135.5a2.56 2.56 0 0 0-2.56 2.561v84.03a2.562 2.562 0 0 0 2.56 2.562h135.5a2.56 2.56 0 0 0 2.559-2.562V7.172a2.562 2.562 0 0 0-2.559-2.56m-2.491 84.02h-130.52V9.746h130.52v78.886"/><path opacity=".11" d="M5.765 106.64V42.09h37.3v-3.124c0-2.724-1.897-2.895-2.375-2.895l-.107.003H1.563l-.111-.003c-.496 0-2.464.171-2.464 2.895v75.04c0 2.786 1.818 3.01 2.399 3.01.11 0 .176-.008.176-.008h39.21c2.292 0 2.292-2.667 2.292-2.667v-7.708h-37.3"/><path fill="#8f9294" d="M44.18 35.12H5.16s-2.581-.224-2.581 2.892v75.04c0 3.32 2.581 3 2.581 3h39.21c2.293 0 2.293-2.668 2.293-2.668v-75.38c0-3.115-2.485-2.892-2.485-2.892m-.276 71.53H5.762v-64.55h38.14v64.55"/><path fill="#4e4e4e" d="M26.465 38.26a1.63 1.63 0 1 1-3.261-.003 1.63 1.63 0 0 1 3.261.003"/><path fill="#f3f2f2" d="M24.32 38.26a.516.516 0 0 1 1.03 0 .512.512 0 0 1-.514.512.514.514 0 0 1-.516-.512"/><circle fill="#b3b2b3" cx="24.823" cy="111.78" r="2.587"/><path opacity=".23" fill="#fff" d="M5.765 42.1h38.14L5.765 81.18z"/><path opacity=".11" d="M142.23 7.99l-.209.004h-75.46l-.217-.004c-.959 0-4.766.23-4.766 3.89v100.8c0 3.742 3.515 4.04 4.641 4.04.214 0 .341-.011.341-.011h75.829c4.439 0 4.436-3.583 4.436-3.583V11.876c0-3.659-3.672-3.889-4.595-3.889m2.614 95.32h-73.16v-87.19h73.16v87.19"/><path fill="#8f9294" d="M145.13 6.699H71.304s-4.885-.3-4.885 3.884v100.8c0 4.46 4.885 4.03 4.885 4.03h74.19c4.341 0 4.341-3.583 4.341-3.583V10.58c0-4.184-4.703-3.884-4.703-3.884m-.28 96.61h-73.16v-87.19h73.16v87.19"/><circle fill="#4e4e4e" cx="108.51" cy="10.912" r="2.189"/><path fill="#f3f2f2" d="M107.82 10.912c0-.379.309-.693.693-.693.38 0 .689.313.689.693a.69.69 0 1 1-1.382 0"/><circle fill="#b3b2b3" cx="108.49" cy="109.68" r="3.474"/><g fill="#fff"><path opacity=".23" d="M71.69 16.12h73.16L71.69 91.08z"/><path d="M33.927 85.8c-.851.68-3.676 1.939-7.08 1.939-7.182 0-12.424-4.46-12.424-12.185 0-7.727 5.242-12.186 12.765-12.186 2.928 0 5.549.714 7.387 1.566-.341.612-.579 1.939-.715 2.655l-.204.068c-.953-1.055-3.268-3.03-6.468-3.03-5.344 0-9.429 3.371-9.429 10.927 0 7.556 4.085 10.927 9.429 10.927 3.233 0 5.616-1.838 6.91-2.826l.136.137-.307 2.01M125.35 80.982c-1.656 1.32-7.147 3.771-13.766 3.771-13.963 0-24.15-8.67-24.15-23.691 0-15.02 10.191-23.692 24.817-23.692 5.691 0 10.788 1.39 14.361 3.045-.663 1.19-1.126 3.77-1.391 5.161l-.396.133c-1.854-2.053-6.354-5.891-12.574-5.891-10.389 0-18.332 6.553-18.332 21.244 0 14.69 7.941 21.241 18.332 21.241 6.286 0 10.918-3.571 13.434-5.49l.264.264-.595 3.905M215.38 53.5c0 .761-.059 1.151 1.092.896v.43c-.137.059-.37.156-.586.195-1.014.176-1.853.02-2.01-1.131l-.175.176c-.818.819-1.716 1.229-2.888 1.229-1.387 0-2.595-.936-2.595-2.38 0-2.226 1.775-2.518 3.608-2.81 1.542-.254 2.069-.371 2.069-1.307 0-1.445-.819-2.283-2.282-2.283-1.425 0-2.188.917-2.323 1.346h-.214v-1.093c.936-.644 1.99-1.073 3.141-1.073 2.05 0 3.162 1.073 3.162 3.278V53.5m-1.56-3.219l-.685.136c-1.326.253-3.316.45-3.316 2.224 0 1.23.723 1.834 1.911 1.834.528 0 1.191-.37 1.561-.742.138-.136.529-.467.529-.604v-2.848M219.35 43.28v2.537h2.068c-.059.274-.059.546 0 .742h-2.068v4.898c0 1.189-.176 3.16 1.444 3.16.292 0 .585-.078.878-.137v.468c-.526.196-1.073.352-1.639.352-1.482 0-2.342-.683-2.244-3.063v-5.678h-1.209a1.577 1.577 0 0 0 0-.742h1.209v-1.932l1.561-.605M230.08 54.15c-.956.683-2.165 1.151-3.355 1.151-2.692 0-4.604-1.776-4.604-4.8 0-2.712 1.56-4.8 4.468-4.8 2.166 0 4.157 1.522 3.961 4.78a135.162 135.162 0 0 0-3.961-.058h-2.752c-.175 2.184 1.015 4.058 3.377 4.058 1.325 0 2.36-.84 2.888-1.346l-.022 1.015m-1.053-4.449c-.039-1.698-.507-3.396-2.438-3.396-1.834 0-2.634 1.756-2.752 3.396h5.19M232.06 45.817c.254.018.507.059.779.059.255 0 .487-.041.78-.06v1.951l.098-.234c.645-1.015 1.484-1.834 2.459-1.834.273 0 .429.02.604.098l-.274 1.639c-.292-.079-.584-.313-.916-.313-.43 0-.955.156-1.249.488-.682.78-.722 1.425-.722 2.478v5.05c-.293-.02-.526-.059-.781-.059-.272 0-.525.039-.779.059v-9.326M245.2 54.15c-.958.683-2.166 1.151-3.356 1.151-2.692 0-4.604-1.776-4.604-4.8 0-2.712 1.562-4.8 4.47-4.8 2.164 0 4.156 1.522 3.959 4.78a134.924 134.924 0 0 0-3.959-.058h-2.751c-.177 2.184 1.014 4.058 3.374 4.058 1.326 0 2.36-.84 2.888-1.346l-.021 1.015m-1.053-4.449c-.039-1.698-.507-3.396-2.438-3.396-1.835 0-2.634 1.756-2.751 3.396h5.189M247.61 45.817c.253.018.506.059.779.059.253 0 .487-.041.78-.06v1.951l.098-.234c.645-1.015 1.481-1.834 2.459-1.834.273 0 .429.02.604.098l-.272 1.639c-.294-.079-.586-.313-.918-.313-.429 0-.954.156-1.248.488-.684.78-.722 1.425-.722 2.478v5.05c-.294-.02-.528-.059-.781-.059-.273 0-.526.039-.779.059v-9.326"/></g><g fill="#ff8d27"><path d="M252.82 52.958c.624 0 1.149.547 1.149 1.171 0 .644-.525 1.17-1.149 1.17-.646 0-1.19-.527-1.19-1.17 0-.645.566-1.171 1.19-1.171M263.39 47.787h-.156c-.157-.214-.313-.468-.527-.644-.448-.507-1.268-.781-1.933-.781-2.262 0-3.354 1.951-3.354 4 0 2.497 1.423 4.273 3.551 4.273 1.132 0 1.873-.527 2.693-1.269l.116.059-.098.898a5.015 5.015 0 0 1-2.985.976c-3.258 0-4.995-2.107-4.995-4.839 0-3.02 2.147-4.761 5.05-4.761 1.113 0 2.127.214 3.084.8l-.449 1.288M269.61 45.699c2.673 0 4.526 1.854 4.526 4.76 0 2.478-1.658 4.839-4.876 4.839-2.635 0-4.781-1.932-4.605-4.897 0-2.809 2.147-4.702 4.955-4.702m-3.239 4.995c0 1.932.818 4 3.044 4 2.281 0 3-2.809 3-4.332 0-1.756-.662-4.059-2.828-4.059-2.478 0-3.22 2.323-3.22 4.391M275.85 45.817c.252.018.509.059.78.059.254 0 .487-.041.779-.06v1.678c.646-1.112 1.522-1.795 2.888-1.795 1.27 0 2.439.683 2.851 1.932.74-1.249 1.736-1.932 3.063-1.932 2.381 0 3.142 1.385 3.142 3.805v5.639c-.294-.02-.528-.059-.781-.059-.271 0-.527.039-.78.059v-5.189c0-1.738-.254-3.241-2.165-3.241-1.971 0-2.245 1.756-2.245 3.162v5.268c-.293-.02-.525-.059-.778-.059-.273 0-.528.039-.782.059v-5.716c0-1.835-.624-2.713-2.067-2.713-2.01 0-2.343 1.327-2.343 2.751v5.678c-.291-.02-.524-.059-.778-.059-.272 0-.527.039-.78.059l-.004-9.326"/></g><path fill="#fff" d="M206.97 54.43c-.494.395-2.133 1.125-4.108 1.125-4.167 0-7.208-2.587-7.208-7.07 0-4.483 3.041-7.07 7.406-7.07 1.698 0 3.22.414 4.285.909-.197.354-.335 1.125-.414 1.54l-.119.039c-.553-.612-1.896-1.758-3.752-1.758-3.101 0-5.47 1.956-5.47 6.34 0 4.383 2.369 6.338 5.47 6.338 1.875 0 3.258-1.066 4.01-1.639l.079.08-.178 1.165"/></svg>