<svg xmlns="http://www.w3.org/2000/svg" viewBox="0 0 317 224"><path fill="#929292" d="M274.43 50.48H84.77c-17.432 0-31.603 14.155-31.603 31.598v102.76c0 17.441 14.171 31.604 31.603 31.604h189.66c17.48 0 31.642-14.16 31.642-31.604V82.078c0-17.442-14.161-31.597-31.641-31.597M69.001 91.956l55.28 41.48-55.28 41.521v-83m221.25 92.88c0 8.722-7.103 15.781-15.821 15.781H84.77c-8.721 0-15.771-7.06-15.771-15.781l61.885-46.46 34.497 25.932a23.833 23.833 0 0 0 28.438 0l34.533-25.932 61.896 46.46m0-9.878l-55.33-41.521 55.33-41.479v83m-101.17-16.978c-2.74 2.045-6.02 3.164-9.455 3.164-3.435 0-6.713-1.119-9.491-3.164l-32.684-24.541-6.562-4.938-61.885-46.42c0-8.722 7.05-15.783 15.771-15.783h189.66c8.721 0 15.821 7.06 15.821 15.783l-101.17 75.9"/><path fill="#924199" stroke="#f2f2f2" stroke-width="9" stroke-miterlimit="10" d="M119.77 106.3l-31.698 2.189-16.16 14.02 16.969 48.07 17.287-26.935 30.367 10.119-16.767-47.46z"/><circle fill="#f2f2f2" cx="67.31" cy="61.43" r="35.26"/><g fill="#924199"><path d="M57.08 48.3l1.408 6.387 6.896-3.257h.06v28.535h8.249v-36.18h-7.03L57.084 48.3"/><path stroke="#f2f2f2" stroke-width="9" stroke-miterlimit="10" d="M21.279 106.73l28.878 2.189 14.733 14.02-15.474 48.07-15.748-26.934L6 154.194l15.279-47.46z"/><path d="M108.98 102.82l1.609-23.308 15.356-17.62-15.356-17.625-1.609-23.297-23.309-1.635L68.046 4.002l-17.62 15.334-23.324 1.635-1.607 23.321-15.333 17.601 15.333 17.62 1.606 23.308 23.324 1.639 17.62 15.33 17.625-15.33 23.31-1.64m-41.24-8.789c-17.91 0-32.436-14.537-32.436-32.432 0-17.9 14.523-32.424 32.436-32.424 17.914 0 32.451 14.523 32.451 32.424 0 17.895-14.537 32.432-32.451 32.432"/></g></svg>