<svg xmlns="http://www.w3.org/2000/svg" width="364" height="500" viewBox="0 0 364 500"><path fill="#FFF" d="M713.17-402.066c33.63-15.778 57.086-49.687 57.086-89.353 0-54.533-44.268-98.836-98.871-98.836-54.581 0-98.896 44.279-98.896 98.836 0 39.666 23.456 73.575 57.133 89.353l-5.256 30.901-47.051 276.936h188.048l-46.995-276.959-5.198-30.878z"/><g fill="#FFF"><path d="M289.487 51.499c-12.309 0-23.706 3.196-33.817 8.363-12.496-32.606-41.756-55.475-75.86-55.475-34.391 0-63.788 23.294-76.108 56.324-9.063-3.92-19.062-6.242-29.697-6.242-39.434 0-71.403 30.108-71.403 67.233 0 37.149 31.969 67.259 71.403 67.259 21.708 0 40.919-9.338 54.014-23.717 14.181 12.782 32.056 20.746 51.792 20.746 21.421 0 40.745-9.237 55.388-24.017 13.107 14.58 32.419 24.017 54.289 24.017 39.434 0 71.402-30.109 71.402-67.233-.001-37.15-31.97-67.258-71.403-67.258zM83.928 442.992h194.947v48.707H83.928zM278.875 210.781c-15.841-1.722-30.995-6.989-44.102-15.678-16.565 10.711-35.477 16.452-54.963 16.452-17.863 0-35.027-4.742-50.581-13.855-13.419 9.037-29.023 14.431-45.301 16.078v206.843h194.947v-209.84z"/></g></svg>