<svg xmlns="http://www.w3.org/2000/svg" viewBox="1.75 0 100 100"><path d="M0 0h103.69v100H0z"/><g fill="#78b843"><path d="M17.14 36.04h1.191v-2.583l2.099-.585v3.169h1.676v1.978H20.43v3.856c0 1.05.243 1.534.867 1.897l1.131.646-.928 1.653c-2.16-1.03-3.168-1.777-3.168-3.815v-4.239H17.14V36.04"/><path d="M27.441 35.774c3.411 0 5.389 2.563 5.389 5.147 0 2.583-1.978 5.146-5.389 5.146-3.412 0-5.389-2.563-5.389-5.146 0-2.585 1.977-5.147 5.389-5.147m0 8.315c1.837 0 3.168-1.412 3.168-3.168 0-1.757-1.332-3.169-3.168-3.169s-3.169 1.413-3.169 3.169 1.332 3.168 3.169 3.168M32.476 36.04h1.19v-2.583l2.1-.585v3.169h1.675v1.978h-1.675v3.856c0 1.05.242 1.534.868 1.897l1.131.646-.93 1.655c-2.159-1.03-3.169-1.777-3.169-3.815v-4.239h-1.19V36.04"/><path d="M45.943 44.614h-.039c-.667.888-1.877 1.454-3.208 1.454-3.211 0-5.067-2.625-5.067-5.146 0-2.402 1.999-5.147 5.166-5.147 1.455 0 2.563.626 3.109 1.453h.039v-1.191h2.1v9.769h-2.1v-1.192m-2.985-.525c1.653 0 3.067-1.412 3.067-3.168 0-1.757-1.414-3.169-3.067-3.169-1.696 0-3.109 1.413-3.109 3.169s1.413 3.168 3.109 3.168M51.16 33.13v8.74c0 1.13.243 1.534.868 1.897l1.131.646-.93 1.655c-2.159-1.03-3.167-1.777-3.167-3.815V33.13h2.098"/><path d="M53.891 36.04h2.1v9.87c0 1.716-.868 2.887-3.088 3.896l-.848-1.675c1.454-.768 1.836-1.211 1.836-2.362V36.04m1.05-3.169a1.171 1.171 0 1 1-.002 2.342 1.171 1.171 0 0 1 .002-2.342M61.954 35.774c3.411 0 5.387 2.563 5.387 5.147 0 2.583-1.976 5.146-5.387 5.146-3.412 0-5.39-2.563-5.39-5.146 0-2.585 1.978-5.147 5.39-5.147m0 8.315c1.836 0 3.167-1.412 3.167-3.168 0-1.757-1.331-3.169-3.167-3.169-1.837 0-3.169 1.413-3.169 3.169s1.332 3.168 3.169 3.168M68.02 33.13h2.101v4.098h.04c.504-.808 1.816-1.453 3.189-1.453 2.541 0 5.084 1.876 5.084 5.147 0 3.27-2.543 5.146-5.084 5.146-1.373 0-2.686-.646-3.189-1.454h-.04v1.19H68.02V33.13m5.146 4.622c-1.755 0-3.047 1.353-3.047 3.169s1.292 3.168 3.047 3.168c1.758 0 3.049-1.352 3.049-3.168s-1.291-3.169-3.049-3.169M80.03 42.898c.745.807 1.978 1.433 3.067 1.433 1.211 0 1.937-.687 1.937-1.231 0-.646-.503-.989-1.271-1.13l-1.189-.222c-2.747-.505-3.514-1.393-3.514-2.786 0-1.654 1.395-3.188 3.836-3.188 1.352 0 2.543.404 3.875 1.352l-1.191 1.473c-1.029-.868-1.938-1.089-2.622-1.089-.91 0-1.796.443-1.796 1.231 0 .585.464.888 1.27 1.029l2.119.404c1.737.324 2.584 1.151 2.584 2.604 0 1.433-1.17 3.29-4.138 3.29-1.656 0-3.067-.585-4.399-1.716l1.432-1.454"/></g><path fill="#fff" d="M81.63 50.788h-7.466v7.991h-1.337v-7.991h-2.896v8.664c0 2.873-1.798 4.595-4.072 4.595-2.246 0-4.069-1.722-4.069-4.595v-8.664h-2.897v4.776c-1.229-3.02-4.236-5.102-7.814-5.102-3.291 0-6.097 1.757-7.485 4.389-.528-2.392-2.513-4.063-5.49-4.063h-7.466v2.146a.106.106 0 0 0-.009-.011v1.271l.009-.006v4.59H24.97v2.746h4.271c-.969 1.609-2.65 2.522-4.624 2.522-2.822 0-5.369-2.372-5.369-5.418s2.547-5.419 5.369-5.419c1.545 0 2.9.627 3.884 1.746v-3.568a8.544 8.544 0 0 0-3.884-.924c-4.694 0-8.415 3.571-8.415 8.165 0 4.595 3.72 8.166 8.415 8.166 2.714 0 4.676-1.013 6.02-2.362v2.036h2.897v-4.944h3.544l3.271 4.944h3.646l-3.921-5.592a5.424 5.424 0 0 0 2.612-1.74c.264 4.347 3.871 7.658 8.391 7.658 3.706 0 6.796-2.229 7.937-5.429.573 3.037 3.159 5.429 6.846 5.429 3.623 0 6.179-2.31 6.811-5.271h1.494v4.944h2.896v-4.944h4.569c3.496 0 5.644-2.295 5.644-5.369-.003-3.069-2.149-5.366-5.645-5.366m-43.753 7.989h-4.343v-5.242h4.343c2.048 0 2.973 1.222 2.973 2.621s-.925 2.621-2.973 2.621m13.201 5.269c-2.824 0-5.37-2.372-5.37-5.418s2.546-5.419 5.37-5.419c2.819 0 5.368 2.373 5.368 5.419s-2.549 5.418-5.368 5.418m30.33-5.269h-4.342v-5.242h4.342c2.049 0 2.974 1.222 2.974 2.621s-.925 2.621-2.974 2.621"/></svg>