<svg xmlns="http://www.w3.org/2000/svg" viewBox="0 0 16 15"><path fill="#999" d="M1.77 6.958c.235-.022.47.04.706.187.237.146.592.424 1.07.832l2.493 2.136 5.599-6.53c.499-.581.875-.981 1.13-1.203.253-.222.541-.347.858-.375.536-.033 1 .123 1.398.463.387.332.603.77.644 1.313.019.231-.014.443-.094.638-.081.193-.203.4-.369.62-.165.219-.423.532-.773.939L8.909 12.42c-.306.357-.536.619-.688.787-.15.168-.305.313-.459.439a1.54 1.54 0 0 1-.453.263 1.754 1.754 0 0 1-.479.09 2.177 2.177 0 0 1-.674-.073 2.042 2.042 0 0 1-.574-.316 26.151 26.151 0 0 1-1.039-.861l-2.932-2.514c-.478-.409-.805-.72-.983-.928a1.192 1.192 0 0 1-.297-.7 1.552 1.552 0 0 1 .372-1.142c.259-.303.615-.472 1.067-.507"/></svg>