<svg xmlns="http://www.w3.org/2000/svg" width="151.333" height="500" viewBox="0 0 151.333 500"><path fill="#FFF" d="M713.17-402.066c33.63-15.778 57.086-49.687 57.086-89.353 0-54.533-44.268-98.836-98.871-98.836-54.581 0-98.896 44.279-98.896 98.836 0 39.666 23.456 73.575 57.133 89.353l-5.256 30.901-47.051 276.936h188.048l-46.995-276.959-5.198-30.878z"/><g fill="#FFF"><path d="M821.487 49.499c-12.309 0-23.706 3.196-33.817 8.363-12.496-32.606-41.756-55.475-75.86-55.475-34.391 0-63.788 23.294-76.108 56.324-9.063-3.92-19.062-6.242-29.697-6.242-39.434 0-71.403 30.108-71.403 67.233 0 37.149 31.97 67.259 71.403 67.259 21.708 0 40.919-9.338 54.015-23.717 14.18 12.782 32.056 20.746 51.791 20.746 21.421 0 40.744-9.237 55.388-24.017 13.106 14.58 32.419 24.017 54.289 24.017 39.434 0 71.402-30.109 71.402-67.233-.001-37.15-31.97-67.258-71.403-67.258zM615.928 440.992h194.947v48.707H615.928zM810.875 208.781c-15.841-1.722-30.995-6.989-44.103-15.678-16.564 10.711-35.477 16.452-54.963 16.452-17.863 0-35.027-4.742-50.58-13.855-13.42 9.037-29.023 14.431-45.302 16.078v206.843h194.947v-209.84z"/></g><path fill="#FFF" d="M124.627 495.106H28.406S-12.096 184.609 16.92 151.562c12.761-14.575 27.119-22.225 42.575-25.584V36.951h-2.468V5.022h39.021v31.929H93.59v89.027c15.457 3.359 29.783 11.05 42.565 25.584 29.004 33.048-11.528 343.544-11.528 343.544zm-9.808-258.85c0-21.106-17.156-38.293-38.303-38.293-21.148 0-38.273 17.187-38.273 38.293 0 21.23 17.125 38.397 38.273 38.397 21.148 0 38.303-17.167 38.303-38.397z"/></svg>