<svg xmlns="http://www.w3.org/2000/svg" width="181.333" height="500" viewBox="0 0 181.333 500"><path fill="#FFF" d="M713.17-402.066c33.63-15.778 57.086-49.687 57.086-89.353 0-54.533-44.268-98.836-98.871-98.836-54.581 0-98.896 44.279-98.896 98.836 0 39.666 23.456 73.575 57.133 89.353l-5.256 30.901-47.051 276.936h188.048l-46.995-276.959-5.198-30.878z"/><g fill="#FFF"><path d="M821.487 49.499c-12.309 0-23.706 3.196-33.817 8.363-12.496-32.606-41.756-55.475-75.86-55.475-34.391 0-63.788 23.294-76.108 56.324-9.063-3.92-19.062-6.242-29.697-6.242-39.434 0-71.403 30.108-71.403 67.233 0 37.149 31.97 67.259 71.403 67.259 21.708 0 40.919-9.338 54.015-23.717 14.18 12.782 32.056 20.746 51.791 20.746 21.421 0 40.744-9.237 55.388-24.017 13.106 14.58 32.419 24.017 54.289 24.017 39.434 0 71.402-30.109 71.402-67.233-.001-37.15-31.97-67.258-71.403-67.258zM615.928 440.992h194.947v48.707H615.928zM810.875 208.781c-15.841-1.722-30.995-6.989-44.103-15.678-16.564 10.711-35.477 16.452-54.963 16.452-17.863 0-35.027-4.742-50.58-13.855-13.42 9.037-29.023 14.431-45.302 16.078v206.843h194.947v-209.84z"/></g><path fill="#FFF" d="M28.627-53.894h-96.221s-40.502-310.497-11.486-343.544c12.761-14.575 27.119-22.225 42.575-25.584v-89.027h-2.468v-31.929H.048v31.929H-2.41v89.027c15.457 3.359 29.783 11.05 42.565 25.584C69.159-364.39 28.627-53.894 28.627-53.894zm-9.808-258.85c0-21.106-17.156-38.293-38.303-38.293-21.148 0-38.273 17.187-38.273 38.293 0 21.23 17.125 38.397 38.273 38.397 21.148 0 38.303-17.167 38.303-38.397zM66.142 3.997h-4.971c.606 13.963 4.244 100.511 1.203 110.433-1.799 6.083-3.91 8.608-6.224 9.012v.123h-.92v-.123c-2.334-.404-4.426-2.929-6.245-9.012-3.001-9.921-3.769-96.49-3.869-110.433h-7.245c1.404 100.592-1.263 100.835-4.112 110.433-1.869 6.083-4.001 8.608-6.274 9.012v.123h-.951v-.123c-2.273-.404-4.385-2.929-6.213-9.012-2.971-9.921.626-96.49 1.202-110.433h-5.729S-5.434 134.132 9.752 147.975c6.164 5.598 13.013 8.79 20.399 10.386-1.405 43.123-8.892 282.883-2.586 310.647 3.91 17.156 8.446 24.108 13.367 25.461v.243c.313 0 .647 0 .96-.061.364.061.697.061 1.051.061v-.243c4.9-1.353 9.376-8.305 13.327-25.461 6.355-27.906-1.243-269.747-2.586-311.192 6.659-1.738 12.893-4.709 18.52-9.841C87.35 134.132 66.142 3.997 66.142 3.997zM121.035 4.825v145.331c-.828 24.856-9.599 289.208-2.748 318.59 3.971 17.317 8.608 24.37 13.65 25.723v.243c.354 0 .687 0 1-.061.354.061.677.061 1.031.061v-.243c5.011-1.353 9.618-8.405 13.66-25.723 6.719-29.2-1.819-290.44-2.778-318.084 7.911-2.587 15.256-5.881 21.894-10.165 23.815-15.316-13.922-126.012-45.709-135.672z"/></svg>