<svg xmlns="http://www.w3.org/2000/svg" viewBox="0 0 317 224"><path fill="#929292" d="M184.47 47.534c10.968 6.881 18.657 18.512 20.06 32.03 4.466 2.079 9.438 3.279 14.699 3.279 19.2 0 34.782-15.564 34.782-34.769 0-19.22-15.579-34.783-34.782-34.783-19.03 0-34.47 15.287-34.757 34.25"/><g fill="#924199"><path d="M161.68 118.75c19.222 0 34.784-15.562 34.784-34.78 0-19.21-15.565-34.771-34.784-34.771-19.2 0-34.782 15.563-34.782 34.785 0 19.2 15.578 34.766 34.782 34.766M176.44 121.12h-29.509c-24.552 0-44.538 19.983-44.538 44.539v36.1l.098.564 2.486.778c23.425 7.313 43.789 9.755 60.55 9.755 32.738 0 51.696-9.323 52.883-9.928l2.313-1.17h.244v-36.1c.013-24.555-19.972-44.538-44.526-44.538"/></g><g fill="#929292"><path d="M233.98 85.22H204.7c-.317 11.706-5.317 22.268-13.237 29.856 21.836 6.488 37.805 26.722 37.805 50.638v11.11c28.917-1.059 45.58-9.249 46.678-9.798l2.312-1.185h.26v-36.1c0-24.554-19.986-44.523-44.538-44.523M100.65 82.85c6.809 0 13.14-1.994 18.5-5.375 1.705-11.11 7.677-20.838 16.186-27.456.029-.647.104-1.284.104-1.95 0-19.2-15.581-34.783-34.787-34.783-19.2 0-34.782 15.579-34.782 34.783-.004 19.2 15.576 34.781 34.779 34.781M131.9 115.08c-7.877-7.56-12.865-18.05-13.226-29.698-1.085-.075-2.168-.158-3.264-.158H85.898c-24.569 0-44.539 19.969-44.539 44.524v36.1l.086.563 2.486.779c18.801 5.867 35.578 8.569 50.16 9.423v-10.896c0-23.916 15.966-44.15 37.808-50.638"/></g></svg>