<svg xmlns="http://www.w3.org/2000/svg" width="21.002" height="20.99" viewBox="0 0 21.002 20.99"><path fill="#FFF" d="M10.503 3.656l1.834 3.897.341.723.79.121 4.237.648-3.115 3.184-.53.542.122.749.72 4.403-3.676-2.025-.724-.399-.724.399-3.681 2.027.722-4.403.123-.748-.531-.543-3.113-3.184 4.237-.648.789-.121.341-.722 1.838-3.9m0-3.156a.277.277 0 0 0-.248.164L7.308 6.916.739 7.922a.28.28 0 0 0-.224.198.294.294 0 0 0 .068.297l4.756 4.863-1.125 6.866a.304.304 0 0 0 .11.287l.163.057.13-.036 5.885-3.242 5.883 3.242.132.033.16-.057a.29.29 0 0 0 .107-.286l-1.122-6.866 4.757-4.861a.298.298 0 1 0-.155-.497l-6.57-1.005L10.752.663A.278.278 0 0 0 10.503.5z"/></svg>