<svg xmlns="http://www.w3.org/2000/svg" height="255.18" viewBox="0 0 267.235 255.176" width="267.24"><path d="M252.93 87.3l-71.68-6.779c-4.512-.411-8.413-3.279-10.268-7.601l-25.67-62.22c-4.103-10.268-18.683-10.268-22.793 0L97.05 72.92c-1.635 4.322-5.746 7.189-10.269 7.601L15.121 87.3C4.441 88.323.129 101.679 8.142 108.859l54.01 47.44c3.489 3.091 4.923 7.604 3.9 12.13l-16.224 66.53c-2.467 10.479 8.834 19.1 18.28 13.559l59.753-35.12c3.91-2.267 8.634-2.267 12.535 0l59.752 35.12c9.456 5.541 20.747-2.879 18.28-13.559l-16.01-66.53c-1.033-4.521.411-9.03 3.896-12.13l54.01-47.44c7.79-7.18 3.28-20.536-7.4-21.559z" fill="#ece01b"/></svg>